<?xml version="1.0" encoding="UTF-8"?>
<svg version="1.1" xmlns="http://www.w3.org/2000/svg" width="800" height="800">
<path d="M0 0 C264 0 528 0 800 0 C800 264 800 528 800 800 C536 800 272 800 0 800 C0 536 0 272 0 0 Z " fill="#010100" transform="translate(0,0)"/>
<path d="M0 0 C2.23033796 0.40176838 4.46080826 0.80280278 6.69140625 1.203125 C18.41729531 3.37093642 29.75441372 6.01693975 41 10 C41.64694824 10.22268555 42.29389648 10.44537109 42.96044922 10.67480469 C53.41299193 14.2854516 63.29145464 18.70917162 73 24 C73.71945801 24.38752441 74.43891602 24.77504883 75.18017578 25.17431641 C87.84059549 32.10192509 97.93647795 40.70820442 108 51 C108.90621094 51.90878906 109.81242187 52.81757813 110.74609375 53.75390625 C123.53004998 67.20253959 131.99709617 84.30281216 137 102 C137.53238034 103.54489808 138.0731583 105.08694616 138.625 106.625 C141.50173293 115.22375909 142 122.86362371 142 132 C104.71 132 67.42 132 29 132 C27.515 126.06 27.515 126.06 26 120 C20.11257754 104.83912454 10.42081502 95.53255472 -3 87 C-3.63679688 86.56816406 -4.27359375 86.13632813 -4.9296875 85.69140625 C-10.40963159 82.18805891 -16.75989128 80.58393564 -23 79 C-23.72960937 78.81373047 -24.45921875 78.62746094 -25.2109375 78.43554688 C-52.6244997 71.71876876 -82.82851454 72.25816179 -107.625 86.75 C-109.06746094 87.63945312 -109.06746094 87.63945312 -110.5390625 88.546875 C-113 90 -113 90 -116 91 C-116.69991895 92.31618224 -117.36279124 93.6523401 -118 95 C-119.0760746 96.19262676 -120.18293209 97.35790916 -121.3125 98.5 C-128.11087494 106.19439507 -130.81408494 114.69860064 -130.3515625 124.8984375 C-129.10363643 135.9079186 -124.26509161 145.15647811 -115.60546875 152.19140625 C-93.44759747 167.57235738 -66.36667096 172.59973934 -40.53807068 178.49351501 C-33.68456077 180.06057779 -26.86396207 181.74393275 -20.05761719 183.50463867 C-16.5569488 184.40073277 -13.06705039 185.19014214 -9.515625 185.859375 C-2.09014932 187.31363722 5.19522666 189.35432474 12.5 191.3125 C14.03017274 191.72110099 15.56036491 192.12962923 17.09057617 192.53808594 C20.07061147 193.33444123 23.04997112 194.1332584 26.02880859 194.93408203 C29.27369328 195.80623291 32.52113907 196.66833914 35.76953125 197.52734375 C44.4086768 199.83590507 52.70799438 202.63497623 61 206 C63.24880494 206.85730802 65.49881082 207.71147241 67.75 208.5625 C72.91578846 210.55739328 77.99442638 212.63177162 83 215 C84.15886719 215.54140625 85.31773437 216.0828125 86.51171875 216.640625 C102.62873721 224.32931144 116.87075535 233.90557266 130 246 C130.84175781 246.75925781 131.68351562 247.51851562 132.55078125 248.30078125 C151.66424567 266.35788839 162.58747525 293.37906496 163.45703125 319.36791992 C163.93402106 352.74907608 152.10396742 386.03242334 128.73828125 410.19921875 C127.38283203 411.58560547 127.38283203 411.58560547 126 413 C125.20980469 413.85207031 124.41960937 414.70414063 123.60546875 415.58203125 C108.58857858 431.39583765 88.85819426 442.41668231 69 451 C67.82308594 451.51175781 66.64617187 452.02351563 65.43359375 452.55078125 C42.44706258 462.14710009 17.2277408 468.75960631 -7.59985352 470.74511719 C-9.37297027 470.93341277 -11.13921152 471.18924481 -12.89819336 471.48144531 C-24.75482275 473.38635573 -36.54895452 473.30254642 -48.53149414 473.26074219 C-52.16244406 473.25007362 -55.7928937 473.26065858 -59.42382812 473.2734375 C-76.67852073 473.28432657 -93.70861739 472.51416269 -110.6875 469.25 C-111.56978271 469.08516113 -112.45206543 468.92032227 -113.36108398 468.75048828 C-141.39942678 463.35333319 -141.39942678 463.35333319 -152 459 C-153.39959324 458.5230932 -154.8032712 458.05799158 -156.2109375 457.60546875 C-180.57389027 449.56337789 -202.61571318 437.90129229 -222 421 C-222.73645752 420.36408936 -222.73645752 420.36408936 -223.48779297 419.71533203 C-230.7854251 413.3805337 -237.16891942 406.74639902 -243 399 C-243.72703125 398.0615625 -244.4540625 397.123125 -245.203125 396.15625 C-255.59698671 382.05548656 -262.42872298 365.82976275 -267 349 C-267.30550781 347.96101563 -267.61101562 346.92203125 -267.92578125 345.8515625 C-272.63037679 329.57499974 -271 314.5873377 -271 297 C-234.37 297 -197.74 297 -160 297 C-158.68 304.26 -157.36 311.52 -156 319 C-153.3754907 327.15725863 -150.26756039 333.70361803 -145.453125 340.7578125 C-144 343 -144 343 -143 346 C-142.01 346.33 -141.02 346.66 -140 347 C-138.81587997 348.15028803 -137.63635523 349.30580742 -136.484375 350.48828125 C-115.22051191 372.14384708 -83.8957432 378.78004861 -54.59008789 379.16845703 C-37.35942187 379.2746427 -20.38439299 378.76154479 -4 373 C-2.89269531 372.62875 -1.78539062 372.2575 -0.64453125 371.875 C6.93064683 369.17528823 13.44782731 365.64923145 20 361 C20.59554688 360.59007812 21.19109375 360.18015625 21.8046875 359.7578125 C28.57841614 354.66874176 33.61655597 346.33496444 35 338 C35.82886503 328.76118734 36.53600517 318.90857882 31 311 C30.525625 310.319375 30.05125 309.63875 29.5625 308.9375 C16.55094042 292.42282822 -7.96304211 285.86744761 -27.43896484 280.70214844 C-29.30957139 280.18929196 -31.17373598 279.65277213 -33.03369141 279.10253906 C-42.76720501 276.22823179 -52.58286295 274.01022032 -62.5 271.875 C-64.91257223 271.35408174 -67.32480479 270.83176406 -69.73620605 270.30545044 C-71.22028495 269.98163454 -72.70502969 269.66084892 -74.19055176 269.34371948 C-78.23031366 268.46346407 -82.09176973 267.34099364 -86 266 C-88.26401496 265.54774853 -90.53604224 265.13475342 -92.8125 264.75 C-107.80305393 262.07807674 -122.79875676 258.57283673 -137.28515625 253.8671875 C-140.1083374 252.96539439 -142.94667412 252.19186936 -145.8125 251.4375 C-150.33856818 250.21793984 -154.6607779 248.76753634 -159 247 C-159.85722656 246.65195312 -160.71445312 246.30390625 -161.59765625 245.9453125 C-164.74073188 244.65085605 -167.86970465 243.32505005 -171 242 C-172.24338624 241.49063307 -173.48687973 240.98152789 -174.73046875 240.47265625 C-188.96005861 234.55816114 -202.3791488 227.21104256 -214 217 C-214.81597656 216.31550781 -215.63195312 215.63101563 -216.47265625 214.92578125 C-236.09235442 198.03525284 -249.25335169 174.21001222 -251.30151367 148.16601562 C-251.43612086 144.19099831 -251.47439243 140.22631637 -251.4375 136.25 C-251.43445862 135.55100586 -251.43141724 134.85201172 -251.42828369 134.13183594 C-251.3569175 123.01266548 -250.48791284 112.61073869 -247 102 C-246.79101074 101.33194336 -246.58202148 100.66388672 -246.36669922 99.97558594 C-235.35839191 65.42516823 -209.19918617 39.37367755 -177.62402344 22.74902344 C-164.81283198 16.16625697 -151.78414297 11.13174369 -138 7 C-137.20964355 6.75910645 -136.41928711 6.51821289 -135.60498047 6.27001953 C-124.87752846 3.02725504 -114.1159114 0.49125863 -103 -1 C-101.9903418 -1.13680176 -100.98068359 -1.27360352 -99.94042969 -1.41455078 C-66.8870936 -5.6821358 -32.79309647 -6.31788942 0 0 Z " fill="#FCFCFC" transform="translate(460,158)"/>
<path d="M0 0 C0.66 0.33 1.32 0.66 2 1 C0.88200014 2.33920838 -0.24461897 3.67122556 -1.375 5 C-2.00148437 5.7425 -2.62796875 6.485 -3.2734375 7.25 C-4.12808594 8.11625 -4.12808594 8.11625 -5 9 C-5.66 9 -6.32 9 -7 9 C-7.33 9.99 -7.66 10.98 -8 12 C-8.66 11.34 -9.32 10.68 -10 10 C-6.7 6.7 -3.4 3.4 0 0 Z " fill="#E7E7E7" transform="translate(252,201)"/>
<path d="M0 0 C0.66 0.33 1.32 0.66 2 1 C0.70700306 3.88437779 -0.65941363 5.87219421 -3 8 C-3.66 7.67 -4.32 7.34 -5 7 C-3.35 4.69 -1.7 2.38 0 0 Z " fill="#DDDDDC" transform="translate(492,505)"/>
</svg>
